<svg preserveAspectRatio="none" width="100%" height="100%" overflow="visible" style="display: block;" viewBox="0 0 18 13" fill="none" xmlns="http://www.w3.org/2000/svg">
<path id="Vector" d="M0 13V7.42857C0 7.01071 0.0825 6.63155 0.2475 6.29107C0.4125 5.9506 0.63 5.64881 0.9 5.38571V2.78571C0.9 2.0119 1.1625 1.35417 1.6875 0.8125C2.2125 0.270833 2.85 0 3.6 0H7.2C7.545 0 7.8675 0.0657738 8.1675 0.197321C8.4675 0.328869 8.745 0.510714 9 0.742857C9.255 0.510714 9.5325 0.328869 9.8325 0.197321C10.1325 0.0657738 10.455 0 10.8 0H14.4C15.15 0 15.7875 0.270833 16.3125 0.8125C16.8375 1.35417 17.1 2.0119 17.1 2.78571V5.38571C17.37 5.64881 17.5875 5.9506 17.7525 6.29107C17.9175 6.63155 18 7.01071 18 7.42857V13H16.2V11.1429H1.8V13H0ZM9.9 4.64286H15.3V2.78571C15.3 2.52262 15.2138 2.30208 15.0413 2.12411C14.8688 1.94613 14.655 1.85714 14.4 1.85714H10.8C10.545 1.85714 10.3313 1.94613 10.1588 2.12411C9.98625 2.30208 9.9 2.52262 9.9 2.78571V4.64286ZM2.7 4.64286H8.1V2.78571C8.1 2.52262 8.01375 2.30208 7.84125 2.12411C7.66875 1.94613 7.455 1.85714 7.2 1.85714H3.6C3.345 1.85714 3.13125 1.94613 2.95875 2.12411C2.78625 2.30208 2.7 2.52262 2.7 2.78571V4.64286ZM1.8 9.28571H16.2V7.42857C16.2 7.16548 16.1138 6.94494 15.9413 6.76696C15.7688 6.58899 15.555 6.5 15.3 6.5H2.7C2.445 6.5 2.23125 6.58899 2.05875 6.76696C1.88625 6.94494 1.8 7.16548 1.8 7.42857V9.28571Z" fill="var(--fill-0, #838382)"/>
</svg>
