<svg preserveAspectRatio="none" width="100%" height="100%" overflow="visible" style="display: block;" viewBox="0 0 18 11" fill="none" xmlns="http://www.w3.org/2000/svg">
<path id="Vector" d="M1.8 11C1.305 11 0.88125 10.8205 0.52875 10.4615C0.17625 10.1024 0 9.67083 0 9.16667V1.83333C0 1.32917 0.17625 0.897569 0.52875 0.538542C0.88125 0.179514 1.305 0 1.8 0H16.2C16.695 0 17.1188 0.179514 17.4713 0.538542C17.8238 0.897569 18 1.32917 18 1.83333V9.16667C18 9.67083 17.8238 10.1024 17.4713 10.4615C17.1188 10.8205 16.695 11 16.2 11H1.8ZM1.8 9.16667H16.2V1.83333H13.5V5.5H11.7V1.83333H9.9V5.5H8.1V1.83333H6.3V5.5H4.5V1.83333H1.8V9.16667Z" fill="var(--fill-0, #838382)"/>
</svg>
