<svg width="120" height="120" viewBox="0 0 120 120" fill="none" xmlns="http://www.w3.org/2000/svg" role="img" aria-label="Libro de Reclamaciones">
  <rect x="4" y="4" width="112" height="112" rx="10" fill="#1f4e8c"/>
  <g fill="#ffffff">
    <path d="M34 32h26c5 0 9 3.6 9 8.2v44.4c0-3.4-3-6.2-6.8-6.2H34V32z" opacity="0.95"/>
    <path d="M86 32H60c-5 0-9 3.6-9 8.2v44.4c0-3.4 3-6.2 6.8-6.2H86V32z"/>
    <rect x="56" y="40" width="2.4" height="44" rx="1.2" fill="#1f4e8c"/>
  </g>
  <g stroke="#1f4e8c" stroke-width="2.4" stroke-linecap="round">
    <line x1="63" y1="49" x2="80" y2="49"/>
    <line x1="63" y1="57" x2="80" y2="57"/>
    <line x1="63" y1="65" x2="74" y2="65"/>
  </g>
  <text x="60" y="104" text-anchor="middle" font-family="Arial, sans-serif" font-size="11" font-weight="700" fill="#ffffff" letter-spacing="0.5">LIBRO</text>
</svg>
