<svg width="110" height="22" viewBox="0 0 110 22" fill="none" xmlns="http://www.w3.org/2000/svg">
<path fill-rule="evenodd" clip-rule="evenodd" d="M31.2598 7.37183C34.7174 7.37183 36.5873 8.33227 36.5873 12.0404V21.7154H33.5177V20.3105H33.4649C32.2035 21.5198 30.9775 22 29.1958 22C26.3997 22 24.812 20.2037 24.812 17.7583C24.812 14.4681 27.6522 13.4276 30.6688 13.4276H33.5177V12.245C33.5177 10.591 32.6269 9.94178 30.5629 9.94178C29.478 9.94178 28.296 10.0574 26.2585 10.4753L25.8087 8.00327C27.7316 7.6031 29.6456 7.38078 31.2598 7.38078V7.37183ZM30.8363 15.2861C28.7194 15.2861 27.8815 16.0776 27.8815 17.5093C27.8815 18.861 28.9135 19.6168 30.4218 19.6168C31.789 19.6168 32.962 19.0299 33.5177 18.5764V15.2861H30.8363Z" fill="#4F4F4F"/>
<path d="M56.698 7.38078C58.4532 7.38078 59.8204 7.61195 61.4963 8.0299V11.8715H58.9559V10.1641C57.9769 9.94182 57.2537 9.94178 56.698 9.94178C54.1577 9.94178 52.9315 11.7381 52.9315 14.6904C52.9315 17.6427 54.1577 19.439 56.698 19.439C57.7035 19.439 58.6826 19.4389 60.9671 18.8787L61.4963 21.3509C59.8204 21.7777 58.4532 22 56.698 22C51.4498 22 49.6945 19.0744 49.6944 14.6904C49.6944 10.3064 51.4586 7.38078 56.698 7.38078Z" fill="#4F4F4F"/>
<path fill-rule="evenodd" clip-rule="evenodd" d="M69.9992 7.37183C73.4568 7.37183 75.3267 8.33226 75.3267 12.0404V21.7154H72.2573V20.3105H72.2043C70.943 21.5198 69.7169 22 67.9352 22C65.1479 22 63.5603 20.2037 63.5603 17.7583C63.5603 14.4681 66.4093 13.4276 69.4171 13.4276H72.266V12.245C72.266 10.591 71.3752 9.94179 69.3112 9.94178C68.2263 9.94178 67.0443 10.0574 65.0068 10.4753L64.5658 8.00327C66.4886 7.6031 68.4027 7.38078 70.0168 7.38078L69.9992 7.37183ZM69.5935 15.2861C67.4766 15.2861 66.6386 16.0776 66.6386 17.5093C66.6386 18.861 67.6706 19.6168 69.1789 19.6168C70.5461 19.6168 71.7192 19.0299 72.2749 18.5764V15.2861H69.5935Z" fill="#4F4F4F"/>
<path d="M18.4525 7.38078C21.2397 7.3808 22.6333 9.15036 22.6334 12.0493V21.7243H19.5638V12.7519C19.5638 11.0356 18.8052 9.94179 17.05 9.94178C15.7975 9.94178 14.6861 10.7599 13.9011 11.3468C13.9275 11.738 13.954 12.156 13.954 12.6095V21.7243H10.8845V12.6451C10.8227 11.0089 10.0994 9.94178 8.37057 9.94178C7.08281 9.9418 6.0244 10.7333 5.27467 11.2935V21.7243H2.20509V10.2263H0V7.66533H5.26578V9.57722H5.31877C6.24491 8.53681 7.44446 7.6387 9.00566 7.46974C9.45551 7.41638 9.8701 7.41632 10.3199 7.44299C11.9429 7.58527 13.0278 8.42117 13.5306 9.77282C14.9242 8.25222 16.5736 7.38078 18.4436 7.38078H18.4525Z" fill="#4F4F4F"/>
<path d="M87.5078 7.38078C90.2951 7.38078 91.6887 9.15035 91.6887 12.0493V21.7243H88.6192V12.7519C88.6192 11.0356 87.9488 9.94178 86.1054 9.94178C84.7382 9.94179 83.4504 10.76 82.7006 11.2935V21.7243H79.6312V10.2263H77.4261V7.66533H82.7006V9.57722H82.7536C84.0149 8.25224 85.6291 7.38078 87.4991 7.38078H87.5078Z" fill="#4F4F4F"/>
<path d="M48.9624 10.2975C46.9778 10.2975 45.002 11 43.8818 11.6491V21.7154H40.8123V10.2175H38.6072V7.65638H43.8818V9.9062H43.9435C44.9403 8.63458 46.7308 7.37183 48.9624 7.37183V10.2975Z" fill="#4F4F4F"/>
<path d="M110 7.55858L107.83 9.74619L102.503 4.36625L97.175 9.74619L95.0053 7.55858L102.503 0L110 7.55858Z" fill="#4F4F4F"/>
</svg>
