<svg width="100" height="20" viewBox="0 0 100 20" fill="none" xmlns="http://www.w3.org/2000/svg">
<path fill-rule="evenodd" clip-rule="evenodd" d="M28.418 6.70166C31.5612 6.70167 33.2612 7.57479 33.2612 10.9458V19.7413H30.4707V18.464H30.4226C29.2759 19.5635 28.1613 20 26.5416 20C23.9997 20 22.5564 18.367 22.5564 16.1439C22.5564 13.1528 25.1383 12.2069 27.8807 12.2069H30.4707V11.1318C30.4707 9.62816 29.6608 9.03798 27.7845 9.03798C26.7982 9.03798 25.7236 9.14306 23.8713 9.52301L23.4624 7.2757C25.2105 6.91191 26.9506 6.7098 28.418 6.7098V6.70166ZM28.033 13.8965C26.1086 13.8965 25.3468 14.616 25.3468 15.9176C25.3468 17.1463 26.285 17.8335 27.6562 17.8335C28.8991 17.8334 29.9655 17.2999 30.4707 16.8876V13.8965H28.033Z" fill="#4F4F4F"/>
<path d="M51.5436 6.7098C53.1393 6.7098 54.3822 6.91996 55.9057 7.29991V10.7922H53.5963V9.24011C52.7063 9.03802 52.0488 9.03798 51.5436 9.03798C49.2343 9.03798 48.1196 10.671 48.1196 13.3549C48.1196 16.0388 49.2343 17.6718 51.5436 17.6718C52.4577 17.6718 53.3478 17.6718 55.4246 17.1625L55.9057 19.4099C54.3822 19.7979 53.1393 20 51.5436 20C46.7725 20 45.1768 17.3403 45.1768 13.3549C45.1768 9.36945 46.7806 6.7098 51.5436 6.7098Z" fill="#4F4F4F"/>
<path fill-rule="evenodd" clip-rule="evenodd" d="M63.6356 6.70166C66.7789 6.70166 68.4788 7.57478 68.4788 10.9458V19.7413H65.6884V18.464H65.6402C64.4936 19.5635 63.379 20 61.7592 20C59.2254 20 57.7821 18.367 57.7821 16.1439C57.7821 13.1528 60.3721 12.2069 63.1064 12.2069H65.6964V11.1318C65.6964 9.62816 64.8865 9.03799 63.0102 9.03798C62.0239 9.03798 60.9494 9.14306 59.0971 9.52301L58.6962 7.2757C60.4442 6.91191 62.1843 6.7098 63.6517 6.7098L63.6356 6.70166ZM63.2668 13.8965C61.3423 13.8965 60.5805 14.616 60.5805 15.9176C60.5805 17.1463 61.5187 17.8335 62.8899 17.8335C64.1328 17.8335 65.1993 17.2999 65.7045 16.8876V13.8965H63.2668Z" fill="#4F4F4F"/>
<path d="M16.775 6.7098C19.3088 6.70982 20.5758 8.31851 20.5758 10.9539V19.7493H17.7853V11.5926C17.7853 10.0324 17.0957 9.03799 15.5 9.03798C14.3614 9.03798 13.351 9.7817 12.6373 10.3152C12.6614 10.6709 12.6854 11.0509 12.6854 11.4632V19.7493H9.89499V11.4956C9.83886 10.0081 9.18126 9.03798 7.60961 9.03798C6.43892 9.038 5.47673 9.75753 4.79515 10.2668V19.7493H2.00463V9.29667H0V6.96849H4.78707V8.70656H4.83525C5.67719 7.76074 6.76769 6.94428 8.18697 6.79067C8.59592 6.74217 8.97282 6.74211 9.38177 6.76636C10.8572 6.8957 11.8435 7.65561 12.3005 8.88438C13.5675 7.50202 15.067 6.7098 16.7669 6.7098H16.775Z" fill="#4F4F4F"/>
<path d="M79.5526 6.7098C82.0864 6.7098 83.3534 8.3185 83.3534 10.9539V19.7493H80.5629V11.5926C80.5629 10.0324 79.9535 9.03798 78.2776 9.03798C77.0347 9.03799 75.864 9.78178 75.1824 10.2668V19.7493H72.392V9.29667H70.3873V6.96849H75.1824V8.70656H75.2306C76.3772 7.50204 77.8447 6.7098 79.5446 6.7098H79.5526Z" fill="#4F4F4F"/>
<path d="M44.5113 9.36137C42.7071 9.36137 40.9109 9.99997 39.8925 10.5901V19.7413H37.1021V9.28864H35.0975V6.96035H39.8925V9.00564H39.9487C40.8548 7.84962 42.4826 6.70166 44.5113 6.70166V9.36137Z" fill="#4F4F4F"/>
<path d="M100 6.87144L98.0274 8.86017L93.1842 3.96932L88.3409 8.86017L86.3684 6.87144L93.1842 0L100 6.87144Z" fill="#4F4F4F"/>
</svg>
